<svg width="493" height="532" viewBox="0 0 493 532" fill="none" xmlns="http://www.w3.org/2000/svg">
<rect width="493" height="532" rx="16" fill="url(#paint0_linear_2249_2053)"/>
<path fill-rule="evenodd" clip-rule="evenodd" d="M230.971 201.861C224.259 201.861 218.818 207.302 218.818 214.014C218.818 220.726 224.259 226.167 230.971 226.167C237.683 226.167 243.124 220.726 243.124 214.014C243.124 207.302 237.683 201.861 230.971 201.861ZM213.957 214.014C213.957 204.617 221.574 197 230.971 197C240.367 197 247.985 204.617 247.985 214.014C247.985 223.41 240.367 231.028 230.971 231.028C221.574 231.028 213.957 223.41 213.957 214.014ZM267.919 235.474C267.032 234.094 265.062 233.971 264.01 235.229L239.085 265.029C238.651 265.548 238.021 265.863 237.345 265.897C236.669 265.932 236.01 265.683 235.525 265.211L218.883 249.004C217.793 247.943 216.008 248.131 215.165 249.397L194.282 280.721C193.205 282.336 194.363 284.5 196.304 284.5H294.984C296.907 284.5 298.068 282.373 297.028 280.755L267.919 235.474ZM260.281 232.11C263.437 228.336 269.348 228.707 272.008 232.845L301.117 278.126C304.237 282.979 300.753 289.361 294.984 289.361H196.304C190.48 289.361 187.006 282.87 190.237 278.025L211.12 246.7C213.651 242.904 219.006 242.338 222.274 245.521L237.038 259.9L260.281 232.11Z" fill="#437CFF"/>
<rect x="129.5" y="146.5" width="233" height="251" rx="23.5" stroke="#006BBB"/>
<path fill-rule="evenodd" clip-rule="evenodd" d="M278.915 333.572C276.951 338.936 274.985 344.3 273.02 349.665C272.838 350.161 272.658 350.659 272.478 351.157L272.478 351.158L272.478 351.158C272.001 352.478 271.524 353.799 271.006 355.103C270.55 356.258 269.751 357.247 268.714 357.938C267.678 358.629 266.454 358.99 265.205 358.972H258.309C258.325 358.924 258.34 358.877 258.355 358.831L258.355 358.831C258.392 358.716 258.427 358.609 258.466 358.505C260.311 353.358 262.162 348.204 264.02 343.042C264.376 342.02 265.101 341.165 266.054 340.642C268.238 339.417 270.414 338.187 272.583 336.951C273.29 336.549 273.319 336.42 272.738 335.852C272.344 335.461 271.951 335.069 271.558 334.677C270.598 333.719 269.638 332.761 268.658 331.81C268.552 331.729 268.477 331.614 268.446 331.485C268.415 331.356 268.43 331.22 268.488 331.101C268.813 330.241 269.127 329.379 269.441 328.517L269.441 328.517C269.694 327.822 269.947 327.127 270.206 326.435C270.4 325.845 270.747 325.317 271.214 324.905C271.68 324.492 272.248 324.209 272.86 324.086C273.088 324.032 273.321 324.003 273.555 324.001L273.555 324.001L282.201 324.001C282.212 324 282.222 324 282.233 324C282.269 324 282.306 324.002 282.353 324.005L282.353 324.005L282.41 324.008C282.319 324.257 282.231 324.502 282.143 324.745L282.101 324.863C281.989 325.173 281.879 325.48 281.767 325.787C281.134 327.514 280.502 329.241 279.869 330.968C279.552 331.836 279.234 332.704 278.916 333.572L278.915 333.572ZM233.72 348.238C233.654 348.512 233.541 348.772 233.386 349.008C233.255 349.371 233.125 349.734 232.995 350.098L232.995 350.099C232.767 350.736 232.539 351.373 232.307 352.01L232.093 352.59L232.306 352.009C232.538 351.375 232.765 350.74 232.992 350.105L232.993 350.104C233.123 349.739 233.254 349.373 233.386 349.008C233.335 349.009 233.285 349.011 233.235 349.013L233.234 349.013H233.234C233.167 349.017 233.099 349.02 233.03 349.02C232.01 349.02 230.99 349.018 229.97 349.015C227.372 349.01 224.774 349.005 222.175 349.034C221.889 349.044 221.605 348.982 221.349 348.854C221.093 348.727 220.873 348.538 220.71 348.304C220.546 348.071 220.444 347.8 220.412 347.518C220.381 347.235 220.421 346.949 220.529 346.686C220.963 345.589 221.365 344.481 221.766 343.373L221.766 343.373L221.766 343.373C221.934 342.91 222.101 342.447 222.271 341.986C223.032 339.916 223.797 337.847 224.568 335.777C224.98 334.634 225.794 334.03 227.021 334.008C228.162 333.994 229.31 333.994 230.456 333.994H230.456C232.669 333.994 234.399 332.807 235.152 330.797C235.742 329.211 236.323 327.622 236.905 326.033C237.105 325.486 237.305 324.94 237.505 324.394C237.623 324.053 237.62 324.053 237.26 324.053H224.877C224.495 324.048 224.113 324.077 223.736 324.14C219.423 324.93 216.39 327.279 214.859 331.404C213.509 335.035 212.179 338.673 210.848 342.31L210.847 342.311C210.446 343.408 210.045 344.505 209.643 345.601C209.072 347.102 208.877 348.718 209.075 350.311C209.273 351.903 209.858 353.424 210.78 354.742C211.702 356.059 212.932 357.134 214.366 357.875C215.799 358.615 217.392 358.998 219.008 358.99H222.742H229.74L229.738 358.995H230.091C231.261 358.995 232.432 358.993 233.603 358.992C235.948 358.989 238.295 358.985 240.641 358.995C240.779 359.014 240.919 358.98 241.033 358.9C241.146 358.821 241.226 358.701 241.255 358.566C241.809 357.034 242.367 355.505 242.926 353.975L242.926 353.974L242.926 353.974C243.486 352.438 244.047 350.901 244.604 349.363C244.63 349.248 244.699 349.146 244.796 349.077C244.893 349.008 245.012 348.976 245.131 348.988H252.396C255.49 348.988 257.995 347.324 259.131 344.471C259.604 343.296 260.05 342.104 260.493 340.919C260.693 340.384 260.892 339.85 261.094 339.32C261.224 338.989 261.221 338.989 260.848 338.989H248.475C248.443 338.892 248.476 338.819 248.507 338.75C248.516 338.73 248.525 338.711 248.532 338.691L250.077 334.481C250.259 333.994 250.261 333.994 250.782 333.994H262.517C262.975 334.018 263.427 333.891 263.805 333.633C264.183 333.376 264.465 333.001 264.607 332.568C265.143 331.119 265.674 329.669 266.199 328.217C266.375 327.805 266.495 327.371 266.555 326.928C266.675 325.381 265.343 324.004 263.711 324.004H243.217L243.143 324.004C242.853 324.003 242.714 324.003 242.623 324.069C242.538 324.131 242.494 324.249 242.41 324.478V324.478C242.396 324.515 242.382 324.554 242.366 324.596C239.49 332.486 236.608 340.366 233.72 348.238Z" fill="#437CFF"/>
<defs>
<linearGradient id="paint0_linear_2249_2053" x1="246.5" y1="0" x2="246.5" y2="532" gradientUnits="userSpaceOnUse">
<stop stop-color="white"/>
<stop offset="1" stop-color="#F1F1F1"/>
</linearGradient>
</defs>
</svg>
